<?xml version="1.0" standalone="no"?>
<!DOCTYPE svg PUBLIC "-//W3C//DTD SVG 20010904//EN"
 "http://www.w3.org/TR/2001/REC-SVG-20010904/DTD/svg10.dtd">
<svg version="1.0" xmlns="http://www.w3.org/2000/svg"
 width="640.000000pt" height="640.000000pt" viewBox="0 0 640.000000 640.000000"
 preserveAspectRatio="xMidYMid meet">
<metadata>
Created by potrace 1.11, written by Peter Selinger 2001-2013
</metadata>
<g transform="translate(0.000000,640.000000) scale(0.100000,-0.100000)"
fill="#000000" stroke="none">
<path d="M1488 5835 c-2 -1 -32 -6 -68 -9 -36 -4 -110 -18 -165 -32 -532 -134
-934 -548 -1055 -1089 -26 -115 -36 -371 -19 -490 13 -89 56 -261 75 -299 7
-16 14 -33 14 -38 0 -34 131 -264 202 -353 134 -170 328 -325 513 -411 44 -20
82 -39 85 -41 3 -3 6 -113 6 -246 1 -221 8 -401 18 -452 2 -11 7 -40 11 -65
65 -412 267 -812 570 -1129 297 -311 714 -533 1141 -610 817 -146 1633 188
2110 864 169 238 304 555 348 812 33 193 38 266 39 554 0 254 0 259 21 265 11
4 55 22 96 41 257 118 476 315 627 563 50 82 95 176 103 215 1 6 5 15 10 20 7
8 27 72 36 110 1 6 7 30 14 55 31 116 39 193 35 360 -1 85 -5 169 -8 185 -3
17 -8 46 -12 65 -21 123 -92 319 -150 414 -19 32 -35 60 -35 62 0 2 -17 28
-37 56 -211 299 -487 492 -839 583 -111 29 -210 40 -354 39 -95 0 -237 -11
-250 -19 -3 -2 -21 -6 -41 -9 -20 -3 -74 -17 -120 -32 -399 -125 -726 -416
-890 -794 -79 -184 -120 -379 -119 -570 1 -131 5 -171 30 -300 31 -151 83
-285 165 -425 95 -161 211 -293 360 -410 82 -64 234 -156 293 -177 21 -8 32
-19 33 -33 4 -90 0 -466 -6 -521 -24 -247 -134 -475 -314 -655 -125 -124 -248
-203 -406 -258 -207 -73 -391 -81 -643 -27 -76 16 -241 95 -336 159 -228 154
-416 451 -452 712 -3 28 -8 59 -10 70 -2 11 -4 101 -4 200 -1 333 -2 325 18
331 64 18 294 150 349 198 6 6 43 38 80 71 171 149 288 323 391 576 14 34 50
166 57 207 3 17 8 47 11 65 3 17 7 48 9 67 6 45 6 246 0 285 -2 16 -7 52 -10
80 -15 118 -66 280 -127 405 -201 412 -587 704 -1038 786 -72 13 -352 28 -362
19z m317 -380 c109 -23 185 -50 285 -101 264 -136 452 -365 536 -654 34 -115
39 -162 38 -320 -3 -218 -59 -394 -187 -585 -52 -77 -195 -220 -271 -269 -247
-162 -514 -220 -791 -172 -219 39 -409 139 -571 300 -199 200 -303 444 -309
726 -6 294 88 542 287 755 173 186 406 305 648 331 30 4 56 7 58 9 9 8 212 -7
277 -20z m3170 11 c116 -16 222 -49 330 -103 111 -56 184 -110 280 -207 126
-127 197 -239 254 -400 17 -47 28 -86 26 -86 -2 0 0 -12 5 -26 23 -60 33 -275
18 -389 -36 -281 -219 -574 -457 -732 -185 -124 -374 -181 -601 -184 -103 -1
-161 6 -262 32 -85 21 -100 27 -198 72 -204 94 -393 280 -498 492 -80 161
-112 308 -107 495 3 121 5 139 26 225 5 22 11 47 13 56 9 35 69 176 93 219
107 187 278 345 475 441 183 88 400 122 603 95z m-150 -2489 l130 0 -2 -176
c-2 -253 -9 -351 -34 -477 -5 -28 -12 -64 -15 -80 -19 -105 -122 -357 -200
-487 -94 -156 -284 -376 -399 -462 -22 -17 -46 -35 -53 -42 -60 -57 -312 -194
-456 -249 -67 -25 -229 -69 -291 -79 -157 -24 -370 -34 -465 -21 -19 3 -55 8
-80 11 -368 45 -733 227 -1006 501 -259 260 -432 594 -489 944 -4 25 -10 54
-12 65 -3 11 -7 140 -10 286 l-5 267 155 -1 155 -1 0 -207 c0 -184 6 -292 18
-354 2 -11 7 -33 9 -50 12 -63 48 -183 80 -260 182 -442 578 -772 1045 -870
178 -38 427 -37 590 1 14 3 36 8 50 11 59 10 210 67 304 114 354 176 626 500
739 880 49 167 60 264 60 541 l0 206 26 -5 c14 -3 85 -6 156 -6z"/>
<path d="M1530 5187 c-3 -3 -29 -8 -58 -11 -30 -3 -81 -16 -114 -27 -239 -80
-416 -258 -500 -499 -31 -91 -32 -101 -32 -245 0 -166 12 -221 80 -355 48 -98
168 -238 232 -274 10 -5 19 -13 22 -17 14 -20 176 -91 251 -110 104 -27 263
-29 361 -5 359 85 605 394 609 761 1 200 -76 392 -217 541 -111 116 -280 208
-421 229 -55 9 -208 17 -213 12z"/>
<path d="M4727 5184 c-2 -2 -21 -6 -43 -10 -138 -21 -292 -103 -403 -213 -154
-153 -229 -337 -229 -559 0 -417 321 -753 741 -775 355 -19 675 208 787 558
29 92 37 289 15 385 -44 190 -167 374 -320 480 -66 46 -183 97 -262 116 -58
14 -276 28 -286 18z"/>
</g>
</svg>
