<svg id="Layer_1" data-name="Layer 1" xmlns="http://www.w3.org/2000/svg" viewBox="0 0 32 40"><title>iceskate-good-on</title><line x1="16" y1="30.77" x2="16" y2="38.92" fill="none" stroke="#231f20" stroke-linecap="round" stroke-linejoin="round" stroke-width="2"/><path d="M16,31A15,15,0,1,1,31,16,15,15,0,0,1,16,31Z" fill="#72bc3d"/><path d="M16,2A14,14,0,1,1,2,16,14,14,0,0,1,16,2m0-2A16,16,0,1,0,32,16,16,16,0,0,0,16,0Z"/><path d="M26.65,20.86a.53.53,0,0,0-.53.53A2.11,2.11,0,0,1,24,23.5h-1.6V22.26h.53a1.6,1.6,0,0,0,1.6-1.6v-.81a.51.51,0,0,0,0-.05,2.34,2.34,0,0,0,.8-1.76c0-2.3-2.8-3.08-4.9-3.47a6,6,0,0,1-4.17-2.2,5.46,5.46,0,0,1-.08-3.25,3.41,3.41,0,0,0,.13-.77.92.92,0,0,0-.77-.87,3.83,3.83,0,0,0-3.47,1.28A8.34,8.34,0,0,1,9.65,7.18.53.53,0,0,0,9.3,7h-1a.53.53,0,0,0-.53.53,32.61,32.61,0,0,1-.57,7.3A14.13,14.13,0,0,0,6.82,18a2.34,2.34,0,0,0,.8,1.76.51.51,0,0,0,0,.05v.81a1.6,1.6,0,0,0,1.6,1.6h.53V23.5H7.35a.53.53,0,0,0,0,1.07H24a3.18,3.18,0,0,0,3.18-3.18A.53.53,0,0,0,26.65,20.86ZM21.34,23.5H16.61V22.26h4.73Zm-7-14.93a2.07,2.07,0,0,1,.85-.06c0,.11,0,.24-.08.37a7.55,7.55,0,0,0-.23,1.44c-.18-.31-.36-.65-.55-1A.55.55,0,0,0,13.76,9a1.66,1.66,0,0,1-.45,0A3,3,0,0,1,14.39,8.56ZM8.2,15.08a32.17,32.17,0,0,0,.59-7h.3a8.67,8.67,0,0,0,3,1.78l.14,0a4.33,4.33,0,0,0,1.41.2l.33.6-.55.21-.18,0a.67.67,0,1,0,.56,1l.71-.28c.19.31.38.6.57.86l-.67.53a.67.67,0,1,0,.66.84l.67-.53a6.9,6.9,0,0,0,.78.75l-.45.72a.67.67,0,1,0,.91.62s0,0,0,0l.44-.69a6.47,6.47,0,0,0,1,.43l-.15.67a.67.67,0,1,0,1,.22l.13-.6.87.18c3.61.66,4,1.7,4,2.42A1.29,1.29,0,0,1,23,19.32H9.17A1.29,1.29,0,0,1,7.89,18,13.07,13.07,0,0,1,8.2,15.08Zm.48,5.58v-.28H23.47v.28a.53.53,0,0,1-.53.53H9.22A.53.53,0,0,1,8.68,20.66Zm2.13,1.6h4.73V23.5H10.82Z" fill="#fff"/></svg>