<svg id="Layer_1" data-name="Layer 1" xmlns="http://www.w3.org/2000/svg" viewBox="0 0 32 40"><title>iceskate-good-on</title><line x1="16" y1="30.77" x2="16" y2="38.92" fill="none" stroke="#333" stroke-linecap="round" stroke-linejoin="round" stroke-width="2"/><path d="M16,30.5A14.5,14.5,0,1,1,30.5,16,14.52,14.52,0,0,1,16,30.5Z" fill="#72bc3d"/><path d="M16,2A14,14,0,1,1,2,16,14,14,0,0,1,16,2m0-1A15,15,0,1,0,31,16,15,15,0,0,0,16,1Z" fill="#333"/><path d="M27.87,21.2a.61.61,0,0,0-.61.61,2.4,2.4,0,0,1-2.4,2.4H23.05v-1.4h.6A1.82,1.82,0,0,0,25.48,21v-.92a.58.58,0,0,0,0-.06,2.66,2.66,0,0,0,.91-2c0-2.61-3.18-3.5-5.57-3.94-2.17-.4-3.43-.89-4.74-2.49A6.21,6.21,0,0,1,16,7.88,3.88,3.88,0,0,0,16.13,7a1,1,0,0,0-.87-1,4.35,4.35,0,0,0-3.95,1.45,9.48,9.48,0,0,1-2.75-1.8.61.61,0,0,0-.4-.15H7a.61.61,0,0,0-.61.61,37.06,37.06,0,0,1-.65,8.3A16.06,16.06,0,0,0,5.34,18a2.66,2.66,0,0,0,.91,2,.58.58,0,0,0,0,.06V21a1.82,1.82,0,0,0,1.82,1.82h.6v1.4H5.95a.61.61,0,1,0,0,1.21H24.87a3.61,3.61,0,0,0,3.61-3.61A.61.61,0,0,0,27.87,21.2Zm-6,3H16.47v-1.4h5.37Zm-7.9-17a2.36,2.36,0,0,1,1-.06c0,.12-.06.27-.09.42a8.58,8.58,0,0,0-.26,1.64c-.2-.36-.41-.74-.62-1.15a.62.62,0,0,0-.7-.3,1.89,1.89,0,0,1-.52,0A3.43,3.43,0,0,1,13.94,7.23Zm-7,7.41a36.56,36.56,0,0,0,.67-7.92h.34a9.85,9.85,0,0,0,3.36,2l.16.05A4.92,4.92,0,0,0,13,9l.37.68-.63.24a.74.74,0,0,0-.2,0,.76.76,0,1,0,.64,1.16l.81-.31c.22.35.43.68.65,1l-.76.6a.76.76,0,1,0,.75,1l.76-.6a7.85,7.85,0,0,0,.88.86l-.52.82a.76.76,0,1,0,1,.71s0,0,0-.06l.5-.79a7.35,7.35,0,0,0,1.11.49l-.17.76a.76.76,0,1,0,1.19.25l.15-.68,1,.2c4.1.75,4.57,1.93,4.57,2.75a1.46,1.46,0,0,1-1.46,1.46H8A1.46,1.46,0,0,1,6.55,18,14.86,14.86,0,0,1,6.91,14.65ZM7.46,21v-.32H24.26V21a.61.61,0,0,1-.61.61H8.06A.61.61,0,0,1,7.46,21Zm2.42,1.82h5.37v1.4H9.88Z" fill="#fff"/><path d="M16,2A14,14,0,1,1,2,16,14,14,0,0,1,16,2m0-1A15,15,0,1,0,31,16,15,15,0,0,0,16,1Z" fill="#333"/></svg>