<svg id="Layer_1" data-name="Layer 1" xmlns="http://www.w3.org/2000/svg" viewBox="0 0 30 35"><title>iceskate-unusable-on</title><g id="suomenomakoti"><line x1="15" y1="11.1" x2="15" y2="32.9" fill="none" stroke="#000" stroke-linecap="round" stroke-linejoin="round" stroke-width="2"/><path d="M15,24.85a11.5,11.5,0,1,1,11.5-11.5A11.51,11.51,0,0,1,15,24.85Z" fill="#f54730"/><path d="M15,2.35a11,11,0,1,1-11,11,11,11,0,0,1,11-11m0-1a12,12,0,1,0,12,12,12,12,0,0,0-12-12Z"/><path d="M23.68,16.76a.45.45,0,0,0-.44.44A1.76,1.76,0,0,1,21.47,19H20.14v-1h.44a1.34,1.34,0,0,0,1.33-1.33v-.68a.43.43,0,0,0,0,0,2,2,0,0,0,.67-1.47c0-1.92-2.33-2.57-4.08-2.89A5,5,0,0,1,15,9.69,4.55,4.55,0,0,1,15,7a2.84,2.84,0,0,0,.11-.65.77.77,0,0,0-.64-.72,3.19,3.19,0,0,0-2.9,1.07,7,7,0,0,1-2-1.32.44.44,0,0,0-.3-.11H8.35a.45.45,0,0,0-.44.44,27.19,27.19,0,0,1-.48,6.09,11.78,11.78,0,0,0-.28,2.63,2,2,0,0,0,.67,1.47.43.43,0,0,0,0,0v.68a1.34,1.34,0,0,0,1.33,1.33h.44v1h-2a.44.44,0,1,0,0,.89H21.47a2.65,2.65,0,0,0,2.65-2.65A.44.44,0,0,0,23.68,16.76ZM19.25,19H15.31v-1h3.94ZM13.45,6.52a1.73,1.73,0,0,1,.71,0c0,.09,0,.2-.07.31A6.3,6.3,0,0,0,13.9,8c-.15-.26-.3-.54-.46-.85a.46.46,0,0,0-.51-.22,1.39,1.39,0,0,1-.38,0A2.52,2.52,0,0,1,13.45,6.52ZM8.3,12a26.82,26.82,0,0,0,.49-5.81H9a7.23,7.23,0,0,0,2.46,1.48l.12,0a3.61,3.61,0,0,0,1.18.17l.27.5-.46.18-.15,0a.56.56,0,1,0,.47.85l.6-.23c.16.26.32.5.47.72l-.56.44A.56.56,0,1,0,14,11l.56-.44a5.76,5.76,0,0,0,.65.63l-.38.6a.56.56,0,1,0,.76.52s0,0,0,0l.36-.58a5.39,5.39,0,0,0,.81.36l-.12.56a.56.56,0,1,0,.87.19l.11-.5.72.15c3,.55,3.36,1.41,3.36,2a1.07,1.07,0,0,1-1.07,1.07H9.11A1.07,1.07,0,0,1,8,14.41,10.9,10.9,0,0,1,8.3,12Zm.4,4.65v-.23H21v.23a.45.45,0,0,1-.44.44H9.14A.45.45,0,0,1,8.7,16.6Zm1.78,1.33h3.94v1H10.48Z" fill="#fff"/></g></svg>