<svg id="Layer_1" data-name="Layer 1" xmlns="http://www.w3.org/2000/svg" viewBox="0 0 12 22"><title>location</title><line x1="6" y1="12.71" x2="6" y2="20.86" fill="none" stroke="#231f20" stroke-linecap="round" stroke-linejoin="round" stroke-width="2"/><g id="Location-marker"><line x1="6" y1="12" x2="6" y2="20.93" fill="none" stroke="#000" stroke-linecap="round" stroke-linejoin="round" stroke-width="2"/><path d="M6,3A3,3,0,1,1,3,6,3,3,0,0,1,6,3M6,0a6,6,0,1,0,6,6A6,6,0,0,0,6,0Z" fill="#fff"/><path d="M6,3A3,3,0,1,1,3,6,3,3,0,0,1,6,3M6,1a5,5,0,1,0,5,5A5,5,0,0,0,6,1Z" fill="#1964e6"/></g></svg>