<svg id="Layer_1" data-name="Layer 1" xmlns="http://www.w3.org/2000/svg" viewBox="0 0 32 32"><title>ski-unusable-off</title><path d="M16,31.5A15.5,15.5,0,1,1,31.5,16,15.52,15.52,0,0,1,16,31.5Z" fill="#d10057"/><path d="M16,1A15,15,0,1,1,1,16,15,15,0,0,1,16,1m0-1A16,16,0,1,0,32,16,16,16,0,0,0,16,0Z" fill="#fff"/><path d="M23,11.14a2.54,2.54,0,1,0-2.54-2.54A2.54,2.54,0,0,0,23,11.14ZM23,7a1.56,1.56,0,1,1-1.56,1.56A1.56,1.56,0,0,1,23,7Z" fill="#fff"/><path d="M26.59,23.62a.45.45,0,0,0-.6.21,1,1,0,0,1-1,.61H18.4c1.9-1.74,3.89-4.37,3.47-6.08a2,2,0,0,0-1.76-1.42h0A4.33,4.33,0,0,1,17.76,16h4a7.28,7.28,0,0,0,4.86-1.54,1.76,1.76,0,0,0,.55-1.11,1.14,1.14,0,0,0-.34-.84,1.55,1.55,0,0,0-1.94-.07c-1.52.84-2.66,1.11-3.31.79a1.77,1.77,0,0,1-.8-1.45,2.07,2.07,0,0,0-1.31-2c-1.82-.7-4.91.74-6.65,2.52l-.34.38H4.13a.45.45,0,0,0,0,.9h7.7a4.18,4.18,0,0,0-.56,1.5H5.05a.45.45,0,1,0,0,.9h6.21a3,3,0,0,0,.19.72c1.1,2.71,4.81,3,6.16,3-.38,1.5-4,4.15-4.87,4.51a.44.44,0,0,0-.16.12H6.43a.45.45,0,0,0,0,.9H25a2,2,0,0,0,1.75-1.11A.45.45,0,0,0,26.59,23.62Zm-9.17-8.47a2.23,2.23,0,0,1,.88-1.32,4.92,4.92,0,0,0,1.16,1.32Zm-4-2.14c1.68-1.71,4.39-2.81,5.69-2.31a1.18,1.18,0,0,1,.74,1.19v0a2.62,2.62,0,0,0,1.29,2.14c1,.47,2.31.21,4.18-.83,0,0,.55-.34.83-.06a.24.24,0,0,1,.09.19.9.9,0,0,1-.27.49l0,0a6.52,6.52,0,0,1-4.31,1.24A3.66,3.66,0,0,1,18.83,13a.45.45,0,0,0-.66-.16,3.35,3.35,0,0,0-1.66,2.36H12.18A4.67,4.67,0,0,1,13.47,13Zm5,6.26A.45.45,0,0,0,18,18.9s-4.68.2-5.77-2.47a2.09,2.09,0,0,1-.11-.39h4.51c.65,1.5,3,1.75,3.29,1.77.89.17,1,.61,1,.75.33,1.35-1.83,4.17-4,5.87H14.27C16,23.28,18.83,21,18.51,19.27Z" fill="#fff"/></svg>