<svg id="Layer_1" data-name="Layer 1" xmlns="http://www.w3.org/2000/svg" viewBox="0 0 32 32"><title>ski-good-off</title><path d="M16,30.5A14.5,14.5,0,1,1,30.5,16,14.52,14.52,0,0,1,16,30.5Z" fill="#72bc3d"/><path d="M16,2A14,14,0,1,1,2,16,14,14,0,0,1,16,2m0-1A15,15,0,1,0,31,16,15,15,0,0,0,16,1Z" fill="#fff"/><path d="M22.91,10.4a2.58,2.58,0,1,0-2.58-2.58A2.58,2.58,0,0,0,22.91,10.4Zm0-4.16a1.58,1.58,0,1,1-1.58,1.58A1.59,1.59,0,0,1,22.91,6.24Z" fill="#fff"/><path d="M26.5,23.06a.45.45,0,0,0-.61.21,1.07,1.07,0,0,1-1,.62H18.19c1.92-1.76,4-4.43,3.52-6.17a2,2,0,0,0-1.78-1.44h-.05a4.4,4.4,0,0,1-2.34-.89h4.07a7.39,7.39,0,0,0,4.93-1.56,1.78,1.78,0,0,0,.56-1.12,1.16,1.16,0,0,0-.35-.85,1.57,1.57,0,0,0-2-.07c-1.54.85-2.7,1.12-3.36.8a1.8,1.8,0,0,1-.81-1.47,2.1,2.1,0,0,0-1.33-2c-1.84-.71-5,.75-6.75,2.56l-.35.38H3.71a.45.45,0,1,0,0,.91h7.82A4.24,4.24,0,0,0,11,14.47H4.65a.45.45,0,1,0,0,.91h6.3a3.05,3.05,0,0,0,.2.73c1.12,2.75,4.88,3.06,6.25,3.08-.39,1.52-4,4.22-4.94,4.58a.45.45,0,0,0-.17.12H6a.45.45,0,0,0,0,.91H24.93a2,2,0,0,0,1.78-1.13A.45.45,0,0,0,26.5,23.06Zm-9.3-8.59a2.26,2.26,0,0,1,.89-1.34,5,5,0,0,0,1.18,1.34Zm-4-2.18c1.7-1.74,4.45-2.85,5.78-2.34a1.2,1.2,0,0,1,.75,1.21v0A2.66,2.66,0,0,0,21,13.38c1,.48,2.35.21,4.25-.84,0,0,.56-.35.84-.07a.25.25,0,0,1,.09.19.91.91,0,0,1-.28.5l0,0a6.61,6.61,0,0,1-4.37,1.26,3.72,3.72,0,0,1-2.88-2.21.45.45,0,0,0-.67-.17,3.39,3.39,0,0,0-1.68,2.39H11.88A4.74,4.74,0,0,1,13.19,12.29Zm5.12,6.35a.45.45,0,0,0-.47-.37s-4.75.2-5.85-2.51a2.12,2.12,0,0,1-.11-.39h4.58c.66,1.52,3,1.77,3.34,1.8.9.17,1,.62,1,.76.34,1.37-1.86,4.23-4,6H14C15.75,22.72,18.63,20.38,18.31,18.65Z" fill="#fff"/></svg>