<svg id="Layer_1" data-name="Layer 1" xmlns="http://www.w3.org/2000/svg" viewBox="0 0 30 30"><title>ski-satisfactory-off</title><g id="suomenomakoti"><path d="M15,26.5A11.5,11.5,0,1,1,26.5,15,11.51,11.51,0,0,1,15,26.5Z" fill="#f5c01a"/><path d="M15,4A11,11,0,1,1,4,15,11,11,0,0,1,15,4m0-1A12,12,0,1,0,27,15,12,12,0,0,0,15,3Z" fill="#fff"/><path d="M20.43,10.82a2,2,0,1,0-2-2A2,2,0,0,0,20.43,10.82Zm0-3.2a1.22,1.22,0,1,1-1.22,1.22A1.22,1.22,0,0,1,20.43,7.62Z" fill="#fff"/><path d="M23.19,20.56a.35.35,0,0,0-.47.16.82.82,0,0,1-.76.48H16.8c1.48-1.35,3-3.41,2.71-4.75a1.53,1.53,0,0,0-1.37-1.11h0a3.38,3.38,0,0,1-1.8-.69h3.13a5.69,5.69,0,0,0,3.79-1.2,1.37,1.37,0,0,0,.43-.87.89.89,0,0,0-.27-.66,1.21,1.21,0,0,0-1.51-.06c-1.19.65-2.08.86-2.59.61a1.38,1.38,0,0,1-.62-1.13,1.61,1.61,0,0,0-1-1.53c-1.42-.55-3.83.58-5.19,2l-.27.29H5.66a.35.35,0,0,0,0,.7h6a3.26,3.26,0,0,0-.44,1.17H6.38a.35.35,0,0,0,0,.7h4.85a2.35,2.35,0,0,0,.15.57c.86,2.12,3.76,2.35,4.81,2.37-.3,1.17-3.11,3.24-3.8,3.52a.35.35,0,0,0-.13.09H7.45a.35.35,0,0,0,0,.7H22A1.52,1.52,0,0,0,23.35,21,.35.35,0,0,0,23.19,20.56ZM16,13.95a1.74,1.74,0,0,1,.68-1,3.84,3.84,0,0,0,.91,1Zm-3.09-1.67c1.31-1.33,3.43-2.19,4.44-1.8a.92.92,0,0,1,.58.93v0a2,2,0,0,0,1,1.67c.74.37,1.8.16,3.27-.65,0,0,.43-.27.64-.05a.19.19,0,0,1,.07.15.7.7,0,0,1-.21.38l0,0a5.09,5.09,0,0,1-3.36,1,2.86,2.86,0,0,1-2.22-1.7.35.35,0,0,0-.51-.13,2.61,2.61,0,0,0-1.29,1.84H11.94A3.65,3.65,0,0,1,12.95,12.28Zm3.94,4.89a.35.35,0,0,0-.36-.29S12.87,17,12,15a1.63,1.63,0,0,1-.09-.3h3.52C16,15.82,17.79,16,18,16c.69.13.78.47.8.59.26,1.05-1.43,3.25-3.11,4.58H13.57C14.92,20.29,17.13,18.5,16.89,17.16Z" fill="#fff"/></g></svg>