<svg id="Layer_1" data-name="Layer 1" xmlns="http://www.w3.org/2000/svg" viewBox="0 0 32 40"><title>swim-satisfactory-off </title><line x1="16" y1="30.77" x2="16" y2="38.92" fill="none" stroke="#333" stroke-linecap="round" stroke-linejoin="round" stroke-width="2"/><path d="M16,30.5A14.5,14.5,0,1,1,30.5,16,14.52,14.52,0,0,1,16,30.5Z" fill="#f5c01a"/><path d="M16,2A14,14,0,1,1,2,16,14,14,0,0,1,16,2m0-1A15,15,0,1,0,31,16,15,15,0,0,0,16,1Z" fill="#fff"/><path d="M20.88,9.35a2.73,2.73,0,0,0,.33,5.44l.34,0a2.73,2.73,0,0,0-.33-5.44Zm1.87,2.52a1.54,1.54,0,0,1-1.34,1.72h-.19A1.54,1.54,0,0,1,21,10.53h.19A1.54,1.54,0,0,1,22.75,11.87Z" fill="#fff"/><path d="M4.51,18.06a.6.6,0,0,0,.82-.14c.12-.17.79-1,2.08,0a3,3,0,0,0,3.94,0,2.24,2.24,0,0,1,2.64,0,3.48,3.48,0,0,0,2,.69,2.85,2.85,0,0,0,1.93-.74,2.17,2.17,0,0,1,.74-.36,2.22,2.22,0,0,1,1.9.41,3.33,3.33,0,0,0,4.1,0h0a1.61,1.61,0,0,1,2.08,0,.59.59,0,0,0,.76-.91,2.79,2.79,0,0,0-3.61,0h0a2.23,2.23,0,0,1-2.66,0,3.73,3.73,0,0,0-1.42-.62.58.58,0,0,0-.11-.14s-.81-.77-1.4-1.4-1.52-3.09-1.22-3.89c.23-.6,1.16-1.08,2.15-1.59A14.67,14.67,0,0,0,21.34,8a1.52,1.52,0,0,0,.44-2,1.71,1.71,0,0,0-2.2-.69l-.15.06c-2.36.94-5.18,2.18-6,3.48a4.92,4.92,0,0,0-.48,2.68,4.19,4.19,0,0,1-.23,1.83c-.35.51-2.82,1.65-4.14,2.26l-1.33.63a.58.58,0,0,0-.14.1,2.48,2.48,0,0,0-1.19-.08,2.43,2.43,0,0,0-1.5.95A.59.59,0,0,0,4.51,18.06ZM9,16.73c2.32-1.07,4.13-1.95,4.63-2.67a4.54,4.54,0,0,0,.44-2.49,4.4,4.4,0,0,1,.28-2c.52-.77,2.37-1.79,5.51-3L20,6.44a.54.54,0,0,1,.73.17.33.33,0,0,1-.12.47A13.81,13.81,0,0,1,18.72,8.2c-1.19.62-2.32,1.21-2.71,2.22-.52,1.35.54,4.15,1.46,5.13l.79.8a3.06,3.06,0,0,0-1.11.59l0,0a1.85,1.85,0,0,1-2.44-.06,3.33,3.33,0,0,0-4.12,0l0,0A1.79,1.79,0,0,1,8.32,17Z" fill="#fff"/><path d="M23.92,20.58h0a2.23,2.23,0,0,1-2.66,0,3.33,3.33,0,0,0-4.12,0l0,0a1.83,1.83,0,0,1-2.44-.07,3.33,3.33,0,0,0-4.12,0l0,0a1.85,1.85,0,0,1-2.44-.06,2.94,2.94,0,0,0-2.23-.61,2.43,2.43,0,0,0-1.5.95.59.59,0,0,0,.15.82.6.6,0,0,0,.82-.14c.12-.17.79-1,2.08,0a3.47,3.47,0,0,0,2,.69,2.84,2.84,0,0,0,1.93-.74,2.23,2.23,0,0,1,2.64,0,3,3,0,0,0,3.93,0,2.18,2.18,0,0,1,.74-.36,2.21,2.21,0,0,1,1.9.41,3.33,3.33,0,0,0,4.1,0h0a1.61,1.61,0,0,1,2.08,0,.59.59,0,0,0,.76-.91A2.78,2.78,0,0,0,23.92,20.58Z" fill="#fff"/><path d="M23.92,24.31h0a2.23,2.23,0,0,1-2.66,0,3.33,3.33,0,0,0-4.12,0l0,0a1.83,1.83,0,0,1-2.44-.07,3.33,3.33,0,0,0-4.12,0l0,0a1.85,1.85,0,0,1-2.44-.06,2.94,2.94,0,0,0-2.23-.61,2.43,2.43,0,0,0-1.5.95.59.59,0,0,0,.15.82.6.6,0,0,0,.82-.14c.12-.17.79-1,2.08,0a3.47,3.47,0,0,0,2,.69,2.84,2.84,0,0,0,1.93-.74,2.24,2.24,0,0,1,2.64,0,3,3,0,0,0,3.93,0,2.18,2.18,0,0,1,.74-.36,2.22,2.22,0,0,1,1.9.41,3.33,3.33,0,0,0,4.1,0h0a1.61,1.61,0,0,1,2.08,0,.59.59,0,0,0,.76-.91A2.79,2.79,0,0,0,23.92,24.31Z" fill="#fff"/></svg>