<svg id="Layer_1" data-name="Layer 1" xmlns="http://www.w3.org/2000/svg" viewBox="0 0 30 35"><title>swim-unusable-off </title><g id="suomenomakoti"><line x1="15" y1="11.1" x2="15" y2="32.9" fill="none" stroke="#000" stroke-linecap="round" stroke-linejoin="round" stroke-width="2"/><path d="M15,24.85a11.5,11.5,0,1,1,11.5-11.5A11.51,11.51,0,0,1,15,24.85Z" fill="#f54730"/><path d="M15,2.35a11,11,0,1,1-11,11,11,11,0,0,1,11-11m0-1a12,12,0,1,0,12,12,12,12,0,0,0-12-12Z" fill="#fff"/><path d="M19,7.24a2,2,0,0,0,.24,4l.25,0a2,2,0,0,0-.24-4Zm1.37,1.84a1.13,1.13,0,0,1-1,1.26h-.14a1.13,1.13,0,0,1-.14-2.25h.14A1.13,1.13,0,0,1,20.33,9.08Z" fill="#fff"/><path d="M7,13.61a.44.44,0,0,0,.6-.1c.09-.12.57-.7,1.52,0a2.22,2.22,0,0,0,2.88,0,1.63,1.63,0,0,1,1.93,0,2.54,2.54,0,0,0,1.47.5,2.08,2.08,0,0,0,1.41-.54,1.59,1.59,0,0,1,.54-.26,1.62,1.62,0,0,1,1.39.3,2.44,2.44,0,0,0,3,0h0a1.18,1.18,0,0,1,1.52,0,.43.43,0,0,0,.56-.67,2,2,0,0,0-2.64,0h0a1.63,1.63,0,0,1-1.94,0,2.73,2.73,0,0,0-1-.46.43.43,0,0,0-.08-.1s-.59-.57-1-1a4.22,4.22,0,0,1-.89-2.84c.17-.44.85-.79,1.57-1.17a10.73,10.73,0,0,0,1.52-.9,1.11,1.11,0,0,0,.32-1.46A1.25,1.25,0,0,0,18,4.31l-.11,0C16.17,5,14.11,6,13.47,6.9a3.6,3.6,0,0,0-.35,2A3.07,3.07,0,0,1,13,10.19a14.08,14.08,0,0,1-3,1.65l-1,.46-.1.08A1.81,1.81,0,0,0,8,12.32a1.78,1.78,0,0,0-1.1.69A.43.43,0,0,0,7,13.61Zm3.3-1a10.78,10.78,0,0,0,3.38-2A3.32,3.32,0,0,0,14,8.86a3.22,3.22,0,0,1,.2-1.48c.38-.56,1.73-1.31,4-2.22l.11,0a.39.39,0,0,1,.53.12.24.24,0,0,1-.09.34,10.1,10.1,0,0,1-1.4.82c-.87.45-1.7.88-2,1.62-.38,1,.39,3,1.07,3.75l.58.59a2.24,2.24,0,0,0-.81.43l0,0a1.35,1.35,0,0,1-1.78,0,2.44,2.44,0,0,0-3,0l0,0a1.31,1.31,0,0,1-1.62.06Z" fill="#fff"/><path d="M21.18,15.45h0a1.63,1.63,0,0,1-1.94,0,2.44,2.44,0,0,0-3,0l0,0a1.34,1.34,0,0,1-1.78,0,2.44,2.44,0,0,0-3,0l0,0a1.35,1.35,0,0,1-1.78,0A2.15,2.15,0,0,0,8,15a1.78,1.78,0,0,0-1.1.69.43.43,0,0,0,.11.6.44.44,0,0,0,.6-.1c.09-.12.57-.7,1.52,0a2.54,2.54,0,0,0,1.47.5A2.08,2.08,0,0,0,12,16.11a1.63,1.63,0,0,1,1.93,0,2.22,2.22,0,0,0,2.88,0,1.59,1.59,0,0,1,.54-.26,1.62,1.62,0,0,1,1.39.3,2.44,2.44,0,0,0,3,0h0a1.18,1.18,0,0,1,1.52,0,.43.43,0,0,0,.56-.67A2,2,0,0,0,21.18,15.45Z" fill="#fff"/><path d="M21.18,18.18h0a1.63,1.63,0,0,1-1.94,0,2.44,2.44,0,0,0-3,0l0,0a1.34,1.34,0,0,1-1.78,0,2.44,2.44,0,0,0-3,0l0,0a1.35,1.35,0,0,1-1.78,0A2.15,2.15,0,0,0,8,17.71a1.78,1.78,0,0,0-1.1.69A.43.43,0,0,0,7,19a.44.44,0,0,0,.6-.1c.09-.12.57-.7,1.52,0a2.54,2.54,0,0,0,1.47.5A2.08,2.08,0,0,0,12,18.83a1.63,1.63,0,0,1,1.93,0,2.22,2.22,0,0,0,2.88,0,1.59,1.59,0,0,1,.54-.26,1.62,1.62,0,0,1,1.39.3,2.44,2.44,0,0,0,3,0h0a1.18,1.18,0,0,1,1.52,0,.43.43,0,0,0,.56-.67A2,2,0,0,0,21.18,18.18Z" fill="#fff"/></g></svg>