<svg id="Layer_1" data-name="Layer 1" xmlns="http://www.w3.org/2000/svg" viewBox="0 0 32 40"><title>swim-unusable-on</title><line x1="16" y1="30.77" x2="16" y2="38.92" fill="none" stroke="#231f20" stroke-linecap="round" stroke-linejoin="round" stroke-width="2"/><path d="M16,31.5A15.5,15.5,0,1,1,31.5,16,15.52,15.52,0,0,1,16,31.5Z" fill="#d10057"/><path d="M16,1A15,15,0,1,1,1,16,15,15,0,0,1,16,1m0-1A16,16,0,1,0,32,16,16,16,0,0,0,16,0Z"/><path d="M20.86,7.91a2.61,2.61,0,0,0,.32,5.21l.33,0a2.61,2.61,0,0,0-.32-5.21Zm1.79,2.41A1.48,1.48,0,0,1,21.36,12h-.19A1.48,1.48,0,0,1,21,9h.19A1.48,1.48,0,0,1,22.65,10.32Z" fill="#fff"/><path d="M5.17,16.25A.57.57,0,0,0,6,16.12c.12-.16.75-.91,2,0a2.91,2.91,0,0,0,3.77,0,2.14,2.14,0,0,1,2.53,0,3.33,3.33,0,0,0,1.93.66A2.73,2.73,0,0,0,18,16a2.08,2.08,0,0,1,.71-.35,2.12,2.12,0,0,1,1.82.39,3.19,3.19,0,0,0,3.93,0h0a1.55,1.55,0,0,1,2,0,.57.57,0,0,0,.73-.87,2.67,2.67,0,0,0-3.46,0h0a2.14,2.14,0,0,1-2.55,0,3.57,3.57,0,0,0-1.36-.6.56.56,0,0,0-.1-.14s-.77-.74-1.34-1.34-1.46-3-1.16-3.72c.22-.57,1.11-1,2.06-1.53a14.06,14.06,0,0,0,2-1.18,1.46,1.46,0,0,0,.42-1.91,1.64,1.64,0,0,0-2.11-.66l-.15.06c-2.26.9-5,2.09-5.8,3.33A4.72,4.72,0,0,0,13.2,10,4,4,0,0,1,13,11.77c-.33.49-2.7,1.58-4,2.17l-1.27.6a.55.55,0,0,0-.14.1,2.38,2.38,0,0,0-1.14-.08A2.33,2.33,0,0,0,5,15.47.56.56,0,0,0,5.17,16.25ZM9.49,15c2.22-1,4-1.87,4.43-2.56A4.35,4.35,0,0,0,14.34,10a4.22,4.22,0,0,1,.27-1.94c.5-.74,2.27-1.72,5.27-2.91L20,5.12a.51.51,0,0,1,.7.16.32.32,0,0,1-.11.45,13.23,13.23,0,0,1-1.83,1.08c-1.14.59-2.22,1.16-2.6,2.13-.5,1.3.52,4,1.4,4.91l.75.77a2.93,2.93,0,0,0-1.06.56l0,0a1.77,1.77,0,0,1-2.34-.06,3.19,3.19,0,0,0-3.94,0l0,0a1.71,1.71,0,0,1-2.12.08Z" fill="#fff"/><path d="M23.77,18.67h0a2.14,2.14,0,0,1-2.55,0,3.19,3.19,0,0,0-3.94,0l0,0a1.75,1.75,0,0,1-2.33-.06,3.19,3.19,0,0,0-3.94,0l0,0a1.77,1.77,0,0,1-2.34-.06,2.82,2.82,0,0,0-2.14-.58A2.33,2.33,0,0,0,5,19a.56.56,0,0,0,.14.78A.57.57,0,0,0,6,19.61c.12-.16.75-.91,2,0a3.33,3.33,0,0,0,1.93.66,2.72,2.72,0,0,0,1.85-.71,2.14,2.14,0,0,1,2.53,0,2.91,2.91,0,0,0,3.77,0,2.08,2.08,0,0,1,.71-.35,2.12,2.12,0,0,1,1.82.39,3.19,3.19,0,0,0,3.93,0h0a1.55,1.55,0,0,1,2,0,.57.57,0,0,0,.73-.87A2.67,2.67,0,0,0,23.77,18.67Z" fill="#fff"/><path d="M23.77,22.24h0a2.14,2.14,0,0,1-2.55,0,3.19,3.19,0,0,0-3.94,0l0,0a1.76,1.76,0,0,1-2.33-.06,3.19,3.19,0,0,0-3.94,0l0,0a1.77,1.77,0,0,1-2.34-.06,2.82,2.82,0,0,0-2.14-.58A2.33,2.33,0,0,0,5,22.53a.56.56,0,0,0,.14.78A.57.57,0,0,0,6,23.18c.12-.16.75-.91,2,0a3.33,3.33,0,0,0,1.93.66,2.72,2.72,0,0,0,1.85-.71,2.14,2.14,0,0,1,2.53,0,2.91,2.91,0,0,0,3.77,0,2.08,2.08,0,0,1,.71-.35,2.12,2.12,0,0,1,1.82.39,3.19,3.19,0,0,0,3.93,0h0a1.55,1.55,0,0,1,2,0,.57.57,0,0,0,.73-.87A2.67,2.67,0,0,0,23.77,22.24Z" fill="#fff"/></svg>