<svg id="Layer_1" data-name="Layer 1" xmlns="http://www.w3.org/2000/svg" viewBox="0 0 48 48"><title>icon-white-ski</title><path d="M37.32,16a4.44,4.44,0,1,0-4.44-4.44A4.44,4.44,0,0,0,37.32,16Zm0-7.17a2.73,2.73,0,1,1-2.73,2.73A2.73,2.73,0,0,1,37.32,8.87Z" fill="#fff"/><path d="M43.51,37.84a.78.78,0,0,0-1,.36,1.84,1.84,0,0,1-1.69,1.07H29.19c3.32-3,6.81-7.64,6.07-10.63-.23-.92-.94-2.09-3.07-2.49H32.1s-2.79-.24-4-1.54h7a12.73,12.73,0,0,0,8.5-2.68,3.07,3.07,0,0,0,1-1.94,2,2,0,0,0-.6-1.47,2.71,2.71,0,0,0-3.39-.12c-2.66,1.46-4.66,1.94-5.79,1.37a3.09,3.09,0,0,1-1.39-2.53,3.61,3.61,0,0,0-2.29-3.44c-3.18-1.22-8.58,1.29-11.63,4.4-.21.22-.41.44-.6.66H4.24a.78.78,0,1,0,0,1.57H17.71a7.3,7.3,0,0,0-1,2.62H5.86a.78.78,0,0,0,0,1.57H16.71A5.26,5.26,0,0,0,17,25.87c1.93,4.74,8.41,5.27,10.76,5.3-.67,2.63-7,7.26-8.51,7.89a.78.78,0,0,0-.29.21H8.26a.78.78,0,1,0,0,1.57H40.8a3.41,3.41,0,0,0,3.06-1.95A.78.78,0,0,0,43.51,37.84ZM27.48,23A3.9,3.9,0,0,1,29,20.74,8.6,8.6,0,0,0,31,23Zm-6.91-3.75c2.93-3,7.68-4.91,10-4a2.07,2.07,0,0,1,1.29,2.08.75.75,0,0,0,0,.08c.28,1.88,1,3.14,2.25,3.74,1.66.82,4,.36,7.31-1.45,0,0,1-.6,1.44-.11a.43.43,0,0,1,.15.33,1.57,1.57,0,0,1-.48.86l-.05.05A11.39,11.39,0,0,1,34.92,23a6.4,6.4,0,0,1-5-3.8.78.78,0,0,0-1.15-.29C27,20.18,26,21.63,25.91,23H18.32A8.17,8.17,0,0,1,20.57,19.29Zm8.82,10.95a.78.78,0,0,0-.81-.64c-.08,0-8.18.35-10.08-4.32a3.65,3.65,0,0,1-.2-.68h7.89c1.14,2.62,5.22,3.05,5.75,3.1,1.55.3,1.74,1.06,1.8,1.31.58,2.35-3.2,7.29-7,10.26H22C25,37.25,29.94,33.22,29.39,30.24Z" fill="#fff"/></svg>