<svg id="Layer_1" data-name="Layer 1" xmlns="http://www.w3.org/2000/svg" viewBox="0 0 48 48"><title>icon-white-iceskate</title><path d="M42,33.43a1,1,0,0,0-1,1,3.94,3.94,0,0,1-3.94,3.94h-3v-2.3h1a3,3,0,0,0,3-3V31.56a1,1,0,0,0,0-.1,4.38,4.38,0,0,0,1.5-3.29c0-4.29-5.22-5.75-9.15-6.47-3.56-.65-5.64-1.46-7.78-4.1a10.19,10.19,0,0,1-.14-6.06,6.37,6.37,0,0,0,.24-1.44A1.72,1.72,0,0,0,21.3,8.47a7.15,7.15,0,0,0-6.48,2.39,15.57,15.57,0,0,1-4.53-3,1,1,0,0,0-.66-.25H7.69a1,1,0,0,0-1,1c0,8.18-.59,11.2-1.07,13.63A26.38,26.38,0,0,0,5,28.16a4.37,4.37,0,0,0,1.5,3.29,1,1,0,0,0,0,.1v1.51a3,3,0,0,0,3,3h1v2.3H6a1,1,0,0,0,0,2H37.08A5.94,5.94,0,0,0,43,34.42,1,1,0,0,0,42,33.43ZM32.1,38.36H23.27v-2.3H32.1Zm-13-27.88a3.87,3.87,0,0,1,1.59-.1c0,.2-.09.44-.15.7a14.1,14.1,0,0,0-.43,2.69c-.33-.58-.67-1.21-1-1.89a1,1,0,0,0-1.15-.5,3.1,3.1,0,0,1-.85,0A5.64,5.64,0,0,1,19.12,10.48ZM7.58,22.65a60.06,60.06,0,0,0,1.1-13h.56A16.18,16.18,0,0,0,14.76,13,1,1,0,0,0,15,13a8.09,8.09,0,0,0,2.63.37l.61,1.12-1,.4a1.22,1.22,0,0,0-.33,0A1.25,1.25,0,1,0,18,16.78l1.33-.52c.36.58.71,1.11,1.06,1.6l-1.24,1a1.24,1.24,0,1,0,1.23,1.56l1.24-1A12.89,12.89,0,0,0,23,20.84l-.85,1.34a1.24,1.24,0,1,0,1.69,1.16s0-.06,0-.09L24.69,22a12.07,12.07,0,0,0,1.82.8L26.24,24a1.25,1.25,0,1,0,1.95.42l.24-1.12c.51.12,1.05.23,1.62.34,6.74,1.24,7.52,3.17,7.52,4.51a2.4,2.4,0,0,1-2.4,2.4H9.38A2.4,2.4,0,0,1,7,28.16,24.41,24.41,0,0,1,7.58,22.65Zm.9,10.42v-.52H36.08v.52a1,1,0,0,1-1,1H9.47A1,1,0,0,1,8.47,33.07Zm4,3h8.83v2.3H12.45Z" fill="#fff"/></svg>