<svg id="Layer_1" data-name="Layer 1" xmlns="http://www.w3.org/2000/svg" viewBox="0 0 48 48"><title>icon-white-swim</title><path d="M32,13.83a4.47,4.47,0,0,0,.55,8.9,4.6,4.6,0,0,0,.56,0,4.47,4.47,0,0,0-.55-8.9A4.34,4.34,0,0,0,32,13.83ZM35.05,18a2.52,2.52,0,0,1-2.19,2.82l-.32,0a2.53,2.53,0,0,1-.31-5l.32,0A2.53,2.53,0,0,1,35.05,18Z" fill="#fff"/><path d="M5.19,28.09a1,1,0,0,0,1.35-.23c.2-.27,1.29-1.56,3.41-.07a5,5,0,0,0,6.44-.08c1.88-1.56,4.08-.1,4.33.08A5.7,5.7,0,0,0,24,28.92a4.66,4.66,0,0,0,3.15-1.2,3.55,3.55,0,0,1,1.22-.59,3.63,3.63,0,0,1,3.12.67,5.46,5.46,0,0,0,6.72,0h0a2.64,2.64,0,0,1,3.41,0,1,1,0,0,0,1.24-1.49,4.56,4.56,0,0,0-5.91,0h0c-1.88,1.59-4.1.11-4.35-.06a6.11,6.11,0,0,0-2.33-1,1,1,0,0,0-.17-.23s-1.32-1.27-2.3-2.29c-1.17-1.24-2.49-5.06-2-6.37.38-1,1.9-1.77,3.52-2.61a24,24,0,0,0,3.4-2,2.49,2.49,0,0,0,.72-3.27,2.81,2.81,0,0,0-3.61-1.13l-.25.1c-3.86,1.54-8.48,3.58-9.91,5.7-.78,1.15-.78,2.8-.79,4.39a6.87,6.87,0,0,1-.38,3c-.57.84-4.61,2.7-6.79,3.71-.86.4-1.61.74-2.17,1a.94.94,0,0,0-.23.17A4.06,4.06,0,0,0,7.4,25.2a4,4,0,0,0-2.46,1.55A1,1,0,0,0,5.19,28.09Zm7.38-2.18c3.8-1.75,6.76-3.19,7.57-4.37.7-1,.71-2.51.71-4.08a7.2,7.2,0,0,1,.45-3.31c.85-1.26,3.88-2.93,9-5l.25-.1a.88.88,0,0,1,1.19.28.55.55,0,0,1-.19.76,22.61,22.61,0,0,1-3.13,1.84c-2,1-3.8,2-4.44,3.63-.86,2.22.88,6.8,2.39,8.4.42.44.88.91,1.29,1.32a5,5,0,0,0-1.82,1l0,0c-.17.16-1.7,1.51-4-.1a5.46,5.46,0,0,0-6.74.06l0,0a2.93,2.93,0,0,1-3.63.13Z" fill="#fff"/><path d="M37,32.22h0c-1.88,1.59-4.1.11-4.35-.06a5.46,5.46,0,0,0-6.74.06l0,0c-.06.06-1.61,1.56-4-.11a5.46,5.46,0,0,0-6.74.06l0,0c-.17.16-1.7,1.51-4-.1a4.82,4.82,0,0,0-3.66-1,4,4,0,0,0-2.46,1.55,1,1,0,0,0,.25,1.34,1,1,0,0,0,1.35-.23c.2-.27,1.29-1.56,3.41-.07a5.69,5.69,0,0,0,3.29,1.13,4.65,4.65,0,0,0,3.15-1.21c1.88-1.56,4.08-.1,4.33.08a5,5,0,0,0,6.44-.08,3.56,3.56,0,0,1,1.22-.59,3.63,3.63,0,0,1,3.12.66,5.46,5.46,0,0,0,6.72,0h0a2.64,2.64,0,0,1,3.41,0,1,1,0,0,0,1.24-1.49A4.56,4.56,0,0,0,37,32.22Z" fill="#fff"/><path d="M37,38.32h0c-1.88,1.59-4.1.11-4.35-.06a5.46,5.46,0,0,0-6.74.06l0,0c-.06.06-1.61,1.56-4-.11a5.46,5.46,0,0,0-6.74.06l0,0c-.17.16-1.7,1.51-4-.1a4.82,4.82,0,0,0-3.66-1,4,4,0,0,0-2.46,1.55,1,1,0,0,0,.25,1.34,1,1,0,0,0,1.35-.23c.2-.27,1.29-1.56,3.41-.07A5.69,5.69,0,0,0,13.24,41a4.65,4.65,0,0,0,3.15-1.21c1.88-1.56,4.08-.1,4.33.08a5,5,0,0,0,6.44-.08,3.56,3.56,0,0,1,1.22-.59,3.63,3.63,0,0,1,3.12.66,5.46,5.46,0,0,0,6.72,0h0a2.64,2.64,0,0,1,3.41,0,1,1,0,0,0,1.24-1.49A4.56,4.56,0,0,0,37,38.32Z" fill="#fff"/></svg>